<mxfile host="Electron" agent="Mozilla/5.0 (Windows NT 10.0; Win64; x64) AppleWebKit/537.36 (KHTML, like Gecko) draw.io/26.2.15 Chrome/134.0.6998.205 Electron/35.2.1 Safari/537.36" version="26.2.15">
  <diagram name="페이지-1" id="2bMON-WW6zCbuQjOl0sT">
    <mxGraphModel dx="690" dy="564" grid="1" gridSize="10" guides="1" tooltips="1" connect="1" arrows="1" fold="1" page="1" pageScale="1" pageWidth="827" pageHeight="1169" math="0" shadow="0">
      <root>
        <mxCell id="0" />
        <mxCell id="1" parent="0" />
        <mxCell id="QPCbzKKW-f_QtlZyd3_c-1" value="" style="group" vertex="1" connectable="0" parent="1">
          <mxGeometry x="170" y="220" width="440" height="160" as="geometry" />
        </mxCell>
        <mxCell id="jLcg4qzAgC9zYOHv32vC-6" value="" style="edgeStyle=orthogonalEdgeStyle;rounded=0;orthogonalLoop=1;jettySize=auto;html=1;" parent="QPCbzKKW-f_QtlZyd3_c-1" edge="1">
          <mxGeometry relative="1" as="geometry">
            <mxPoint x="119.99999999999989" y="35.55555555555555" as="sourcePoint" />
            <mxPoint x="160" y="35.55555555555555" as="targetPoint" />
          </mxGeometry>
        </mxCell>
        <mxCell id="jLcg4qzAgC9zYOHv32vC-3" value="CPU" style="rounded=0;whiteSpace=wrap;html=1;fillColor=#dae8fc;strokeColor=#6c8ebf;fontSize=17;fontStyle=1" parent="QPCbzKKW-f_QtlZyd3_c-1" vertex="1">
          <mxGeometry width="120" height="160" as="geometry" />
        </mxCell>
        <mxCell id="jLcg4qzAgC9zYOHv32vC-4" value="APB MASTER" style="rounded=0;whiteSpace=wrap;html=1;fillColor=#d5e8d4;strokeColor=#82b366;fontSize=17;fontStyle=1" parent="QPCbzKKW-f_QtlZyd3_c-1" vertex="1">
          <mxGeometry x="160" width="120" height="160" as="geometry" />
        </mxCell>
        <mxCell id="jLcg4qzAgC9zYOHv32vC-7" value="" style="edgeStyle=orthogonalEdgeStyle;rounded=0;orthogonalLoop=1;jettySize=auto;html=1;" parent="QPCbzKKW-f_QtlZyd3_c-1" source="jLcg4qzAgC9zYOHv32vC-4" target="jLcg4qzAgC9zYOHv32vC-5" edge="1">
          <mxGeometry relative="1" as="geometry">
            <Array as="points">
              <mxPoint x="300" y="35.55555555555555" />
              <mxPoint x="300" y="35.55555555555555" />
            </Array>
          </mxGeometry>
        </mxCell>
        <mxCell id="jLcg4qzAgC9zYOHv32vC-5" value="APB SLAVE" style="rounded=0;whiteSpace=wrap;html=1;fillColor=#ffe6cc;strokeColor=#d79b00;fontSize=17;fontStyle=1" parent="QPCbzKKW-f_QtlZyd3_c-1" vertex="1">
          <mxGeometry x="320" width="120" height="160" as="geometry" />
        </mxCell>
        <mxCell id="jLcg4qzAgC9zYOHv32vC-8" value="" style="edgeStyle=orthogonalEdgeStyle;rounded=0;orthogonalLoop=1;jettySize=auto;html=1;" parent="QPCbzKKW-f_QtlZyd3_c-1" edge="1">
          <mxGeometry relative="1" as="geometry">
            <mxPoint x="320" y="106.6488888888889" as="sourcePoint" />
            <mxPoint x="280" y="106.6488888888889" as="targetPoint" />
            <Array as="points">
              <mxPoint x="300" y="106.6488888888889" />
              <mxPoint x="300" y="106.6488888888889" />
            </Array>
          </mxGeometry>
        </mxCell>
        <mxCell id="jLcg4qzAgC9zYOHv32vC-9" value="" style="edgeStyle=orthogonalEdgeStyle;rounded=0;orthogonalLoop=1;jettySize=auto;html=1;" parent="QPCbzKKW-f_QtlZyd3_c-1" edge="1">
          <mxGeometry relative="1" as="geometry">
            <mxPoint x="160" y="106.66666666666667" as="sourcePoint" />
            <mxPoint x="119.99999999999989" y="106.66666666666667" as="targetPoint" />
          </mxGeometry>
        </mxCell>
      </root>
    </mxGraphModel>
  </diagram>
</mxfile>
